<?xml version="1.0" encoding="UTF-8" standalone="no"?>
<svg
   xmlns:dc="http://purl.org/dc/elements/1.1/"
   xmlns:cc="http://creativecommons.org/ns#"
   xmlns:rdf="http://www.w3.org/1999/02/22-rdf-syntax-ns#"
   xmlns:svg="http://www.w3.org/2000/svg"
   xmlns="http://www.w3.org/2000/svg"
   xmlns:sodipodi="http://sodipodi.sourceforge.net/DTD/sodipodi-0.dtd"
   xmlns:inkscape="http://www.inkscape.org/namespaces/inkscape"
   viewBox="0 -816 2048 2048"
   id="svg2"
   version="1.1"
   inkscape:version="0.91 r13725"
   sodipodi:docname="arAin_fina.svg">
  <metadata
     id="metadata12">
    <rdf:RDF>
      <cc:Work
         rdf:about="">
        <dc:format>image/svg+xml</dc:format>
        <dc:type
           rdf:resource="http://purl.org/dc/dcmitype/StillImage" />
      </cc:Work>
    </rdf:RDF>
  </metadata>
  <defs
     id="defs10" />
  <sodipodi:namedview
     pagecolor="#ffffff"
     bordercolor="#666666"
     borderopacity="1"
     objecttolerance="10"
     gridtolerance="10"
     guidetolerance="10"
     inkscape:pageopacity="0"
     inkscape:pageshadow="2"
     inkscape:window-width="1366"
     inkscape:window-height="704"
     id="namedview8"
     showgrid="false"
     inkscape:zoom="0.2748659"
     inkscape:cx="158.14384"
     inkscape:cy="-362.88896"
     inkscape:window-x="0"
     inkscape:window-y="27"
     inkscape:window-maximized="1"
     inkscape:current-layer="svg2" />
  <g
     id="g4140"
     transform="matrix(1 0 0 -1 0 1638)"
     style="fill:#ff0000;fill-opacity:1">
    <path
       style="fill:#ff0000;fill-opacity:1"
       d="m 737.64453,-850.75391 c -131.76926,1.87742 -242.89307,44.59932 -347.55018,124.83051 -47.69237,39.71369 -89.97095,82.47849 -125.03771,146.85309 -26.77342,54.45982 -44.95516,113.45854 -57.26507,172.67124 -14.29413,71.00103 -16.84816,144.34303 -6.84749,216.10403 12.31364,88.95026 28.2089,147.12904 70.4659,226.257675 31.89398,59.086617 88.71638,135.050595 136.87322,181.795175 28.80205,28.64121 59.56485,55.2842 91.74024,80.06446 -40.11415,39.92116 -82.34778,96.31106 -91.90625,152.79492 -4.97344,48.21206 18.61722,96.16145 54.36719,127.58593 26.08507,22.86881 59.52201,35.62089 93.45507,41.11524 50.73619,9.20761 102.83536,6.88772 153.78907,0.82031 57.221,-9.06847 114.75958,-33.52304 151.95694,-79.43928 28.8079,-35.70965 44.37445,-84.50548 32.99617,-129.86402 -10.83189,-33.9794 -39.41557,-57.59423 -64.88555,-80.71511 -21.51231,-18.83463 -44.11848,-36.36107 -66.59881,-54.01284 59.20319,-48.67419 125.4419,-87.62363 189.43164,-129.43554 22.1337,-17.83665 26.63227,-51.568981 13.84179,-76.207036 C 952.32514,39.396676 924.29131,16.085327 893.27539,2.9628906 868.92845,-6.5266786 840.17388,-6.3931574 817.26463,7.0035588 788.15813,22.060836 762.21273,42.335452 735.19531,60.705078 686.8022,95.683373 640.5534,133.56035 595.86719,173.14648 515.64002,118.76893 431.63445,46.34494 369.92188,-27.814453 313.45621,-100.7584 281.36949,-194.28112 289.26367,-286.73047 c 8.31352,-65.4944 42.64168,-126.36851 82.63692,-172.73543 70.41657,-85.85746 179.77628,-133.06353 289.13126,-148.03923 105.59899,-15.95894 213.13146,-4.19522 317.67713,14.44068 45.72742,7.57718 91.04972,17.38857 135.53712,30.38086 16.329,3.69183 42.9525,15.6716 53.0254,0.59961 10.3964,-16.0563 -0.993,-36.78768 -9.0313,-52.6543 -13.5569,-26.42201 -41.8106,-60.77374 -60.8748,-83.09328 -54.0141,-58.02733 -115.03446,-106.24493 -191.81332,-128.43338 -54.22671,-16.89746 -111.12732,-25.04454 -167.90755,-24.48897 z"
       id="path4142"
       inkscape:connector-curvature="0"
       sodipodi:nodetypes="ccccccccccccccccccccccccccccccccc" />
  </g>
</svg>
