<?xml version="1.0" encoding="UTF-8" standalone="no"?>
<svg
   xmlns:dc="http://purl.org/dc/elements/1.1/"
   xmlns:cc="http://creativecommons.org/ns#"
   xmlns:rdf="http://www.w3.org/1999/02/22-rdf-syntax-ns#"
   xmlns:svg="http://www.w3.org/2000/svg"
   xmlns="http://www.w3.org/2000/svg"
   xmlns:sodipodi="http://sodipodi.sourceforge.net/DTD/sodipodi-0.dtd"
   xmlns:inkscape="http://www.inkscape.org/namespaces/inkscape"
   viewBox="-23 -727 2048 2048"
   id="svg2"
   version="1.1"
   inkscape:version="0.91 r13725"
   sodipodi:docname="arAin_isol.svg">
  <metadata
     id="metadata12">
    <rdf:RDF>
      <cc:Work
         rdf:about="">
        <dc:format>image/svg+xml</dc:format>
        <dc:type
           rdf:resource="http://purl.org/dc/dcmitype/StillImage" />
      </cc:Work>
    </rdf:RDF>
  </metadata>
  <defs
     id="defs10" />
  <sodipodi:namedview
     pagecolor="#ffffff"
     bordercolor="#666666"
     borderopacity="1"
     objecttolerance="10"
     gridtolerance="10"
     guidetolerance="10"
     inkscape:pageopacity="0"
     inkscape:pageshadow="2"
     inkscape:window-width="1366"
     inkscape:window-height="704"
     id="namedview8"
     showgrid="false"
     inkscape:zoom="0.25014132"
     inkscape:cx="414.09705"
     inkscape:cy="-29.031775"
     inkscape:window-x="0"
     inkscape:window-y="27"
     inkscape:window-maximized="1"
     inkscape:current-layer="svg2" />
  <g
     id="g4140"
     transform="matrix(1 0 0 -1 0 1638)"
     style="fill:#ff0000;fill-opacity:1">
    <path
       style="fill:#ff0000;fill-opacity:1"
       d="m 513.38672,-756.83008 c -142.9517,1.84548 -286.29637,50.80445 -396.3125,142.97852 -59.668094,55.58151 -110.3850186,123.60824 -134.438958,202.28097 -18.212865,55.41555 -34.780683,112.05219 -38.626512,170.55854 -6.122988,79.03597 2.32956,158.660959 18.867437,235.9860421 C -16.801796,79.824006 25.492662,157.67825 74.394531,229.26562 c 23.935693,34.58972 49.557399,68.12526 76.845699,100.07813 3.2388,1.40808 -2.68943,3.34407 -3.51293,4.72778 -47.838946,40.00664 -96.03458,83.13616 -124.143977,139.90598 -26.1280304,58.09607 -38.728778,137.06108 -23.503606,198.14317 14.19309,54.9075 42.883885,107.76126 87.779658,143.43205 54.598975,42.36475 140.590585,67.59668 207.447315,52.98523 39.08469,-7.45461 76.42647,-24.5919 106.49995,-50.80554 15.53024,-12.71666 29.47081,-23.38658 41.87891,-41.53711 20.24615,-29.11169 -12.36439,-27.76611 -48.0914,-26.48225 -64.24769,1.02107 -122.13466,-5.97083 -178.21062,-32.20758 -36.96404,-18.55449 -83.32423,-62.19417 -108.70775,-94.53478 -4.37876,-5.9426 -8.42119,-12.13848 -11.99414,-18.59961 26.12341,-38.86636 77.19058,-79.46364 118.69531,-100.18359 40.58961,-16.39592 85.40503,-9.3058 126.50586,1.02344 97.9638,24.97647 184.79132,76.97895 280.15625,111.73437 15.88313,5.54714 34.22926,12.56437 40.32227,-3.86719 3.96392,-20.31323 -9.4068,-56.98205 -13.33789,-77.73242 -9.48358,-36.00332 -14.16625,-73.5536 -28.16211,-108.30273 -9.84066,-20.06748 -6.77402,-23.93599 -42.5428,-38.49081 C 550.65647,376.51472 522.71118,365.12133 495.63427,351.77757 388.42546,301.09378 272.08831,237.08251 188.79435,151.86146 143.10262,106.38983 101.54443,55.704703 80.100696,-6.0740183 58.661963,-70.160557 48.877355,-139.53435 60.463441,-206.51398 c 7.09072,-41.85276 23.574396,-81.81138 46.091249,-117.79266 30.82456,-50.64047 82.52719,-96.35291 130.00976,-132.04102 75.937,-53.96813 168.27587,-78.98244 259.80487,-89.08172 102.31771,-11.21942 201.76927,1.53362 305.9591,22.62988 51.97172,10.94092 103.52695,24.19973 155.20674,36.28778 50.05964,10.7067 25.29615,-33.79414 0.31058,-63.16224 -43.86916,-49.55202 -91.25731,-109.90962 -150.08207,-141.6151 -45.18053,-25.27131 -96.11809,-36.82486 -146.08797,-48.43088 -48.67089,-10.67269 -98.38936,-17.43376 -148.28898,-17.11014 z"
       id="path4142"
       inkscape:connector-curvature="0"
       sodipodi:nodetypes="cccccccccccccccccccccccccccccccccccccc" />
  </g>
</svg>
