<?xml version="1.0" encoding="UTF-8" standalone="no"?>
<svg
   xmlns:dc="http://purl.org/dc/elements/1.1/"
   xmlns:cc="http://creativecommons.org/ns#"
   xmlns:rdf="http://www.w3.org/1999/02/22-rdf-syntax-ns#"
   xmlns:svg="http://www.w3.org/2000/svg"
   xmlns="http://www.w3.org/2000/svg"
   xmlns:sodipodi="http://sodipodi.sourceforge.net/DTD/sodipodi-0.dtd"
   xmlns:inkscape="http://www.inkscape.org/namespaces/inkscape"
   viewBox="0 -410 2048 2048"
   id="svg2"
   version="1.1"
   inkscape:version="0.91 r13725"
   sodipodi:docname="arDal_isol.svg">
  <metadata
     id="metadata12">
    <rdf:RDF>
      <cc:Work
         rdf:about="">
        <dc:format>image/svg+xml</dc:format>
        <dc:type
           rdf:resource="http://purl.org/dc/dcmitype/StillImage" />
      </cc:Work>
    </rdf:RDF>
  </metadata>
  <defs
     id="defs10" />
  <sodipodi:namedview
     pagecolor="#ffffff"
     bordercolor="#666666"
     borderopacity="1"
     objecttolerance="10"
     gridtolerance="10"
     guidetolerance="10"
     inkscape:pageopacity="0"
     inkscape:pageshadow="2"
     inkscape:window-width="1366"
     inkscape:window-height="704"
     id="namedview8"
     showgrid="false"
     inkscape:zoom="0.49849519"
     inkscape:cx="560.89996"
     inkscape:cy="417.44697"
     inkscape:window-x="0"
     inkscape:window-y="27"
     inkscape:window-maximized="1"
     inkscape:current-layer="svg2" />
  <g
     id="g4140"
     transform="matrix(1,0,0,-1,-228,1638)"
     style="fill:#ff0000;fill-opacity:1">
    <path
       style="fill:#ff0000;fill-opacity:1"
       d="m 694.8125,-65.310547 c -56.13646,2.362397 -114.48039,6.514623 -165.29688,32.787109 -27.18676,16.846848 -39.92676,49.246812 -43.26492,79.822805 -4.83953,40.011802 -8.31141,81.528283 2.48172,120.890083 5.30829,16.19909 16.52853,32.64826 34.44922,31.26479 11.19595,-1.00812 21.21153,-5.95044 23.80352,-24.6719 1.74329,-11.00073 22.1853,-18.22255 35.10078,-23.05382 51.06003,-14.66954 108.25435,-14.08952 163.94101,-14.38216 69.47689,1.47474 138.93442,8.17713 207.26907,21.0728 17.08023,3.64538 42.04588,7.91886 58.70988,13.02811 -64.37615,145.95318 -130.27177,264.45975 -210.13456,395.34653 -13.11339,21.49861 -13.49974,22.91441 -8.62525,37.83901 20.73465,51.37736 49.5605,109.59521 76.69727,153.15039 19.90619,32.18416 32.33983,30.16658 52,-4.07031 11.1945,-18.93208 17.39689,-32.58564 26.92854,-48.40938 66.0629,-126.1891 128.408,-257.87534 152.1847,-399.99882 5.724,-29.47831 5.5144,-61.1642 3.738,-90.66169 -2.7371,-45.44924 -11.9419,-88.45118 -30.2727,-131.557319 C 1056.3027,40.260181 1035.3716,0.40273446 991.76489,-17.566028 948.93601,-35.687165 903.24374,-46.220114 857.43555,-53.521484 803.66298,-61.623246 749.19104,-65.533007 694.8125,-65.310547 Z"
       id="path4142"
       inkscape:connector-curvature="0"
       sodipodi:nodetypes="ccccccccccccccccscccc" />
  </g>
</svg>
