<?xml version="1.0" standalone="no"?>
<!DOCTYPE svg PUBLIC "-//W3C//DTD SVG 1.1//EN" "http://www.w3.org/Graphics/SVG/1.1/DTD/svg11.dtd" >
<svg viewBox="-73 -490 2048 2048">
  <g transform="matrix(1 0 0 -1 0 1638)">
   <path fill="currentColor"
d="M578.25 -324.926q-2.13176 132.153 115.621 307.286q26.6238 39.5974 52.4033 23.9844q18.0532 -10.9324 -6.7959 -55.2061q-139.229 -238.064 -77.2285 -340.064q-16.9052 88.7912 72 96q73.9998 6.00018 80 -78q8.66657 -94.8107 -56.2119 -111.723
q-77.7883 -20.2772 -125.788 23.7227q-52.8032 49.0386 -54 134zM696.407 186.025q-15.5273 93.998 -72.4453 174.268l58.1426 104.896q7.11328 11.9814 16.6084 -1.46094q53.5391 -78.6943 63.8975 -196.008q10.3574 -117.312 -17.7461 -146.774
q-75.8232 -116.482 -310.61 -147.716q-234.788 -31.2314 -405.579 21.6719q-92.5752 28.3418 -100.95 128.22q-3.63965 43.3965 33.7451 32.5332q458.894 -114.887 734.938 30.3711z" />
  </g>

</svg>
