<?xml version="1.0" encoding="UTF-8" standalone="no"?>
<svg
   xmlns:dc="http://purl.org/dc/elements/1.1/"
   xmlns:cc="http://creativecommons.org/ns#"
   xmlns:rdf="http://www.w3.org/1999/02/22-rdf-syntax-ns#"
   xmlns:svg="http://www.w3.org/2000/svg"
   xmlns="http://www.w3.org/2000/svg"
   xmlns:sodipodi="http://sodipodi.sourceforge.net/DTD/sodipodi-0.dtd"
   xmlns:inkscape="http://www.inkscape.org/namespaces/inkscape"
   viewBox="-73 -410 2048 2048"
   id="svg2"
   version="1.1"
   inkscape:version="0.91 r13725"
   sodipodi:docname="arKaf_init.svg">
  <metadata
     id="metadata12">
    <rdf:RDF>
      <cc:Work
         rdf:about="">
        <dc:format>image/svg+xml</dc:format>
        <dc:type
           rdf:resource="http://purl.org/dc/dcmitype/StillImage" />
      </cc:Work>
    </rdf:RDF>
  </metadata>
  <defs
     id="defs10" />
  <sodipodi:namedview
     pagecolor="#ffffff"
     bordercolor="#666666"
     borderopacity="1"
     objecttolerance="10"
     gridtolerance="10"
     guidetolerance="10"
     inkscape:pageopacity="0"
     inkscape:pageshadow="2"
     inkscape:window-width="1366"
     inkscape:window-height="704"
     id="namedview8"
     showgrid="false"
     inkscape:zoom="0.2662109"
     inkscape:cx="191.30394"
     inkscape:cy="673.63089"
     inkscape:window-x="0"
     inkscape:window-y="27"
     inkscape:window-maximized="1"
     inkscape:current-layer="svg2" />
  <g
     id="g4140"
     transform="matrix(1,0,0,-1,-2,1638)"
     style="fill:#ff0000;fill-opacity:1">
    <path
       style="fill:#ff0000;fill-opacity:1"
       d="M 257.61719,-70.453125 C 164.23843,-67.861159 83.455034,-59.648794 -3.084137,-22.776441 -45.210456,0.79771474 -79.085018,57.839367 -83.80664,121.38477 c -1.203862,28.42921 10.262207,39.63144 30.701171,44.13476 16.477359,4.46164 49.280606,-5.95029 73.383196,-10.38292 148.435463,-34.35915 302.840433,-53.61658 454.642193,-32.64442 80.69782,11.64765 190.1495,52.44698 260.6836,93.98633 -127.59738,196.83443 -318.30762,386.10596 -454.75391,576.81445 -17.80915,33.43649 -15.51443,72.96545 -10.26367,109.25586 4.6137,35.53763 26.71041,94.75282 54.84961,118.68747 50.3196,37.3493 104.67168,68.7408 157.50862,102.2986 186.15569,113.6615 377.66176,218.3737 569.19393,322.5263 11.4191,5.4357 23.7416,13.0916 36.9127,10.8411 16.7312,-2.2267 17.5063,-11.6305 18.3425,-49.494 -0.738,-37.2648 3.0604,-60.9838 -3.4402,-97.8946 -7.5569,-21.771 -15.614,-32.0954 -36.6824,-43.6425 C 858.01036,1149.5136 604.13476,1010.7022 398.97954,887.19507 509.51086,751.68907 658.0791,589.59808 755.4734,444.56015 791.60484,388.7914 828.01411,332.62926 854.5901,271.53017 883.43102,190.56011 847.87803,97.804009 777.09627,48.206084 714.99823,3.7712423 640.60573,-18.416972 567.47485,-37.020182 466.17404,-61.178809 361.67624,-71.492837 257.61719,-70.453125 Z"
       id="path4142"
       inkscape:connector-curvature="0"
       sodipodi:nodetypes="cccccccccccccccccccccc" />
  </g>
</svg>
