<?xml version="1.0" encoding="UTF-8" standalone="no"?>
<svg
   xmlns:dc="http://purl.org/dc/elements/1.1/"
   xmlns:cc="http://creativecommons.org/ns#"
   xmlns:rdf="http://www.w3.org/1999/02/22-rdf-syntax-ns#"
   xmlns:svg="http://www.w3.org/2000/svg"
   xmlns="http://www.w3.org/2000/svg"
   xmlns:sodipodi="http://sodipodi.sourceforge.net/DTD/sodipodi-0.dtd"
   xmlns:inkscape="http://www.inkscape.org/namespaces/inkscape"
   viewBox="-196 -410 2048 2048"
   id="svg2"
   version="1.1"
   inkscape:version="0.91 r13725"
   sodipodi:docname="arKaf_isol.svg">
  <metadata
     id="metadata12">
    <rdf:RDF>
      <cc:Work
         rdf:about="">
        <dc:format>image/svg+xml</dc:format>
        <dc:type
           rdf:resource="http://purl.org/dc/dcmitype/StillImage" />
      </cc:Work>
    </rdf:RDF>
  </metadata>
  <defs
     id="defs10" />
  <sodipodi:namedview
     pagecolor="#ffffff"
     bordercolor="#666666"
     borderopacity="1"
     objecttolerance="10"
     gridtolerance="10"
     guidetolerance="10"
     inkscape:pageopacity="0"
     inkscape:pageshadow="2"
     inkscape:window-width="1366"
     inkscape:window-height="704"
     id="namedview8"
     showgrid="false"
     inkscape:zoom="0.22336199"
     inkscape:cx="740.46305"
     inkscape:cy="189.88153"
     inkscape:window-x="0"
     inkscape:window-y="27"
     inkscape:window-maximized="1"
     inkscape:current-layer="svg2" />
  <g
     id="g4140"
     transform="matrix(1 0 0 -1 0 1638)"
     style="fill:#ff0000;fill-opacity:1">
    <path
       style="fill:#ff0000;fill-opacity:1"
       d="m 303.91406,-85.697266 c -118.84608,0.751499 -213.632518,3.021951 -326.849113,41.849313 -47.142665,18.440014 -115.496527,61.83802 -148.104007,115.183891 -33.4537,55.552442 -35.30601,122.407212 -21.44448,184.581502 11.10108,49.26607 27.91786,97.48159 51.34939,142.25579 24.53781,47.19278 73.203851,27.78546 48.68136,-22.52136 -17.18167,-39.10059 -29.31271,-91.08661 -17.58041,-133.68117 32.037294,-93.13536 174.132835,-120.14085 260.93164,-132.40234 225.2575,-20.46367 436.8132,-18.67356 645.33984,58.49609 -22.94322,280.01999 -53.57285,575.92278 -75.26172,856.05075 1.23018,28.8202 -1.35976,44.152 15.40039,65.9766 23.87068,31.7079 43.92006,57.4032 73.47852,94.0137 21.74667,26.8829 47.80782,24.9474 50.2793,-21.0547 -0.0256,-198.57263 12.84823,-419.44674 20.50893,-597.11158 6.29303,-128.20878 14.41033,-256.38358 16.78208,-384.74 C 895.33552,121.03115 881.78021,58.603756 844.34135,10.064679 829.78778,-8.1942659 807.80231,-18.677536 785.49838,-23.980008 655.77255,-67.018811 518.38421,-78.37751 382.64753,-84.334851 c -26.2278,-1.024501 -52.48529,-1.401242 -78.73347,-1.362415 z"
       id="path4142"
       inkscape:connector-curvature="0"
       sodipodi:nodetypes="ccccccccccccccccccc" />
  </g>
</svg>
