<?xml version="1.0" encoding="UTF-8" standalone="no"?>
<svg
   xmlns:dc="http://purl.org/dc/elements/1.1/"
   xmlns:cc="http://creativecommons.org/ns#"
   xmlns:rdf="http://www.w3.org/1999/02/22-rdf-syntax-ns#"
   xmlns:svg="http://www.w3.org/2000/svg"
   xmlns="http://www.w3.org/2000/svg"
   xmlns:sodipodi="http://sodipodi.sourceforge.net/DTD/sodipodi-0.dtd"
   xmlns:inkscape="http://www.inkscape.org/namespaces/inkscape"
   viewBox="-447 -454 2048 2048"
   id="svg2"
   version="1.1"
   inkscape:version="0.91 r13725"
   sodipodi:docname="arSeen_isol.svg">
  <metadata
     id="metadata12">
    <rdf:RDF>
      <cc:Work
         rdf:about="">
        <dc:format>image/svg+xml</dc:format>
        <dc:type
           rdf:resource="http://purl.org/dc/dcmitype/StillImage" />
      </cc:Work>
    </rdf:RDF>
  </metadata>
  <defs
     id="defs10" />
  <sodipodi:namedview
     pagecolor="#ffffff"
     bordercolor="#666666"
     borderopacity="1"
     objecttolerance="10"
     gridtolerance="10"
     guidetolerance="10"
     inkscape:pageopacity="0"
     inkscape:pageshadow="2"
     inkscape:window-width="1366"
     inkscape:window-height="704"
     id="namedview8"
     showgrid="false"
     inkscape:zoom="0.33875999"
     inkscape:cx="1092.9471"
     inkscape:cy="43.087394"
     inkscape:window-x="0"
     inkscape:window-y="27"
     inkscape:window-maximized="1"
     inkscape:current-layer="svg2" />
  <g
     id="g4140"
     transform="matrix(1 0 0 -1 0 1638)"
     style="fill:#ff0000;fill-opacity:1">
    <path
       style="fill:#ff0000;fill-opacity:1"
       d="m -132.66992,-487.66016 c -74.63012,-0.0346 -151.56359,13.11406 -216.08008,52.46485 -39.66862,23.97868 -66.43049,64.68553 -81.17194,107.89949 -11.3739,33.07659 -18.23646,67.68135 -21.75921,102.42978 -4.84385,102.38221 14.28013,204.620401 45.10498,301.922681 8.87485,26.587739 17.57851,53.383159 29.29492,78.874999 7.98632,14.89118 19.83159,30.30112 37.22852,34.06836 10.32409,2.43032 20.48809,-5.33372 22.57421,-15.38672 5.47697,-22.68568 -10.86232,-45.19551 -17.65429,-66.34961 -23.49492,-70.832258 -42.71662,-145.004982 -37.76758,-219.96875 3.46696,-34.55272 28.28496,-65.67619 50.07812,-92.22461 18.02407,-22.25515 40.82148,-40.94178 66.76172,-52.78515 36.69508,-17.66332 77.29889,-25.21866 117.77216,-27.60455 75.05532,-6.02209 152.614229,-3.44419 223.899718,23.22369 57.265582,20.46083 114.126452,45.04192 162.159092,82.89992 10.6613,8.6123 20.66089,17.94447 29.47372,28.46726 -5.29957,81.209015 -29.36789,160.431641 -63.68701,234.04176 -13.83123,30.13982 -29.02373,59.56982 -44.56104,88.88598 24.10786,48.29362 43.75564,98.6494 64.53516,148.42578 3.49938,8.06248 13.18703,14.81294 21.83398,10.07422 14.77426,-8.31576 19.06796,-26.32632 26.78668,-40.15191 24.59556,-49.01262 50.83476,-98.372 89.17231,-138.0434 17.38615,-16.64042 42.77155,-20.15168 65.67328,-21.60003 25.8155,-0.097 52.09195,-0.27899 77.19391,6.393 10.81615,6.38959 11.73222,20.51006 17.39843,30.79296 21.08067,52.80073 30.81152,109.78031 53.21485,162.25586 6.82949,12.12731 22.22579,14.7174 34.85742,12.32813 10.57247,-2.08324 21.50494,-4.34593 31.05273,-9.39844 8.09853,-4.15272 11.71118,-13.42059 10.85938,-22.1582 -1.58261,-22.53449 -8.11146,-44.77787 -11.87785,-67.02006 -7.00787,-34.52884 -14.44111,-68.9724 -21.52059,-103.48775 35.2173,-25.69202 82.1569,-32.12015 124.63867,-32.45508 21.56426,-0.12165 45.00098,1.60491 66.44141,3.79687 -4.33419,43.6047 -24.69229,84.3396 -36.07202,126.4688 -3.66427,10.97991 -6.14381,23.63954 -0.0452,34.27534 8.12907,13.57638 19.6699,24.80109 29.68164,36.98828 18.5173,21.08147 37.53634,41.71054 56.27344,62.58985 17.79056,-29.88678 24.78509,-64.68709 30.27431,-98.61531 7.33473,-48.99889 7.26599,-99.00972 0.0926,-148.02633 -5.53662,-48.035195 -13.28655,-97.99544 -40.50702,-139.160662 -11.37865,-18.653147 -28.55085,-34.496947 -50.01617,-40.289497 -24.92624,-7.820107 -51.28955,-3.826625 -76.8586,-3.048835 -43.8296,3.508803 -88.36335,10.606725 -128.39707,29.615347 -16.63272,8.341626 -33.38199,19.8024327 -41.05683,37.429581 -15.00423,-23.355395 -36.66106,-43.352023 -63.51953,-51.828125 -37.18765,-11.891057 -76.82698,-10.691 -115.4082,-11.304687 -6.43948,-0.0057 -12.87893,-0.0027 -19.31836,0.02344 C 353.43887,-128.636 334.8673,-205.33437 299.27539,-274.59961 c -18.51828,-34.88037 -42.53055,-66.79293 -69.80859,-95.29492 -40.67588,-42.41 -93.22265,-72.39001 -149.429523,-88.88674 -68.657367,-21.68907 -140.911985,-29.45704 -212.707197,-28.87889 z"
       id="path4142"
       inkscape:connector-curvature="0"
       sodipodi:nodetypes="ccccccccccccccccccccccccccccccccccccccccccccccccccc" />
  </g>
</svg>
