<?xml version="1.0" encoding="UTF-8" standalone="no"?>
<svg
   xmlns:dc="http://purl.org/dc/elements/1.1/"
   xmlns:cc="http://creativecommons.org/ns#"
   xmlns:rdf="http://www.w3.org/1999/02/22-rdf-syntax-ns#"
   xmlns:svg="http://www.w3.org/2000/svg"
   xmlns="http://www.w3.org/2000/svg"
   xmlns:sodipodi="http://sodipodi.sourceforge.net/DTD/sodipodi-0.dtd"
   xmlns:inkscape="http://www.inkscape.org/namespaces/inkscape"
   viewBox="0 -439 2048 2048"
   id="svg2"
   version="1.1"
   inkscape:version="0.91 r13725"
   sodipodi:docname="arYeh_fina2.svg">
  <metadata
     id="metadata12">
    <rdf:RDF>
      <cc:Work
         rdf:about="">
        <dc:format>image/svg+xml</dc:format>
        <dc:type
           rdf:resource="http://purl.org/dc/dcmitype/StillImage" />
      </cc:Work>
    </rdf:RDF>
  </metadata>
  <defs
     id="defs10" />
  <sodipodi:namedview
     pagecolor="#ffffff"
     bordercolor="#666666"
     borderopacity="1"
     objecttolerance="10"
     gridtolerance="10"
     guidetolerance="10"
     inkscape:pageopacity="0"
     inkscape:pageshadow="2"
     inkscape:window-width="1366"
     inkscape:window-height="704"
     id="namedview8"
     showgrid="false"
     inkscape:zoom="0.46306325"
     inkscape:cx="889.29762"
     inkscape:cy="-0.43844164"
     inkscape:window-x="0"
     inkscape:window-y="27"
     inkscape:window-maximized="1"
     inkscape:current-layer="svg2" />
  <g
     id="g4140"
     transform="matrix(1 0 0 -1 0 1638)"
     style="fill:#ff0000;fill-opacity:1">
    <path
       style="fill:#ff0000;fill-opacity:1"
       d="m 585.56641,-456.89453 c -114.11295,1.23363 -230.51118,10.17962 -337.94727,51.50781 -48.72581,18.6264 -80.78276,26.56324 -116.15234,66.3418 -30.32807,35.04136 -32.085537,83.59037 -28.28103,128.82538 4.90821,70.72787 22.25717,120.686029 71.40697,170.722077 44.71326,46.763715 103.00962,77.807566 162.89554,100.655666 56.33303,23.451637 119.90467,39.557887 166.42933,80.279937 45.99634,46.12411 67.07057,109.93757 107.97866,159.92376 33.80211,44.26304 67.8069,97.93543 122.31857,113.7006 40.17948,11.16897 70.73343,13.30767 104.4043,-12.97461 32.15847,-26.08057 34.00005,-70.3935 36.1543,-110.49023 2.34073,-31.40697 -3.52145,-62.95599 -0.31836,-94.18164 7.68386,-22.27898 32.74344,-45.64579 53.97656,-51.69141 30.52939,-9.28343 67.4588,-11.92874 102.13676,-15.84961 46.7851,-12.1962 53.7939,-104.085853 21.4179,-143.273438 -14.608,-15.962655 -19.6989,-20.616107 -40.489,-18.298136 -57.35618,1.344925 -106.98555,4.335405 -159.47285,29.9284001 C 824.77014,13.815902 808.80195,57.520513 803.8983,108.7326 792.21833,208.24425 726.08537,233.79206 677.74299,213.33936 643.51215,200.76215 613.58456,164.25517 590.9554,136.84716 547.59332,81.656938 542.66413,19.870118 488.12109,-25.953125 433.45271,-72.411263 378.6934,-88.32634 313.93908,-116.76947 c -33.85504,-15.0123 -103.60862,-35.22754 -130.83947,-60.99615 82.85452,-83.28522 273.48173,-92.39101 370.7995,-95.82992 95.83079,-2.33683 191.93034,3.44431 286.46302,18.77683 40.18632,7.62052 78.95706,21.15851 118.28668,31.89831 28.01809,1.44299 26.04329,-24.21512 24.53869,-52.34327 0,0 -2.71784,-51.78373 -24.45508,-100.22852 -14.7417,-29.43427 -36.18218,-40.81929 -79.24834,-53.20695 -64.01125,-13.21565 -129.10667,-20.7071 -194.25752,-25.38289 -33.17707,-2.03123 -66.42114,-2.94066 -99.66015,-2.8125 z"
       id="path4142"
       inkscape:connector-curvature="0"
       sodipodi:nodetypes="ccccccccccccccccccccccccccccccc" />
  </g>
</svg>
