<?xml version="1.0" standalone="no"?>
<!DOCTYPE svg PUBLIC "-//W3C//DTD SVG 1.1//EN" "http://www.w3.org/Graphics/SVG/1.1/DTD/svg11.dtd" >
<svg viewBox="-6 -410 2048 2048">
  <g transform="matrix(1 0 0 -1 0 1638)">
   <path fill="currentColor"
d="M106.1 292.4q36 31.1992 137.601 71.5996q101.6 40.4004 142.399 71.5996q40.8008 31.2002 75.2002 98.4004q88.6084 174.823 160 171.2q96.1064 -4.87695 37.2002 -298.4q-6.02051 -30 -26.1992 -31q-25.4004 0 -25.4004 29.4004q0 251.707 -110.4 83.2002
q-8.7998 -13.6006 -44 -71.2002q-35.2002 -57.6006 -74.4004 -97.2002q-39.1992 -39.5996 -140.06 -81.7964q-100.86 -42.1968 -126.609 -58.3168q-74.6317 -46.7241 -18 -88.736q121.177 -86.4949 369.113 -87.1648q247.936 -0.669878 369.167 47.3676
q37.6688 14.248 33.7461 -32.5332q-7.70215 -100.174 -100.951 -119.22q-213.471 -43.6006 -440.264 -20.5361q-137.15 14.464 -245.061 70.6348q-70.7643 36.8349 -81 96q-22.2534 133.889 107.918 246.701z" />
  </g>

</svg>
