<?xml version="1.0" encoding="UTF-8" standalone="no"?>
<svg
   xmlns:dc="http://purl.org/dc/elements/1.1/"
   xmlns:cc="http://creativecommons.org/ns#"
   xmlns:rdf="http://www.w3.org/1999/02/22-rdf-syntax-ns#"
   xmlns:svg="http://www.w3.org/2000/svg"
   xmlns="http://www.w3.org/2000/svg"
   xmlns:sodipodi="http://sodipodi.sourceforge.net/DTD/sodipodi-0.dtd"
   xmlns:inkscape="http://www.inkscape.org/namespaces/inkscape"
   viewBox="0 -410 2048 2048"
   id="svg2"
   version="1.1"
   inkscape:version="0.91 r13725"
   sodipodi:docname="uni06F5.svg">
  <metadata
     id="metadata12">
    <rdf:RDF>
      <cc:Work
         rdf:about="">
        <dc:format>image/svg+xml</dc:format>
        <dc:type
           rdf:resource="http://purl.org/dc/dcmitype/StillImage" />
      </cc:Work>
    </rdf:RDF>
  </metadata>
  <defs
     id="defs10" />
  <sodipodi:namedview
     pagecolor="#ffffff"
     bordercolor="#666666"
     borderopacity="1"
     objecttolerance="10"
     gridtolerance="10"
     guidetolerance="10"
     inkscape:pageopacity="0"
     inkscape:pageshadow="2"
     inkscape:window-width="1366"
     inkscape:window-height="704"
     id="namedview8"
     showgrid="false"
     inkscape:zoom="0.40110853"
     inkscape:cx="435.98567"
     inkscape:cy="449.74446"
     inkscape:window-x="0"
     inkscape:window-y="27"
     inkscape:window-maximized="1"
     inkscape:current-layer="g4" />
  <g
     transform="matrix(1 0 0 -1 0 1638)"
     id="g4">
    <path
       style="fill:#ff0000;fill-opacity:1"
       d="M 309.38477,1.3105469 C 256.02034,2.4744028 209.35684,31.000536 183.52879,76.591271 149.6488,133.20133 139.02615,199.93962 134.01795,264.71852 c -7.60461,119.19776 1.4791,239.05838 21.17541,356.70726 18.87042,101.02937 52.56422,201.6215 114.55469,284.74219 33.56744,44.36369 76.27471,84.31998 129.21744,103.82043 47.55899,15.8254 102.20952,6.6015 142.45768,-23.10467 56.07311,-37.45362 95.59816,-94.73055 124.24792,-154.8185 44.50643,-95.84962 60.90154,-201.73369 69.83135,-306.18147 7.5735,-98.52056 7.42976,-197.86769 -3.8516,-296.09431 C 723.13594,169.5177 706.89131,108.26339 670.53909,58.424526 639.46213,18.308648 604.80351,-2.9123644 553.28711,2.109375 493.83656,3.8783528 461.78059,72.365182 434.28666,134.45327 399.27823,71.524165 376.40459,0.75564042 309.38477,1.3105469 Z M 537.78516,224.24609 c 29.43454,-0.2063 81.53654,-2.29908 90.58784,62.39197 10.59291,107.19057 9.16822,221.90025 -27.31072,315.70293 C 496.15567,875.12691 310.46008,768.82608 263.77945,565.38668 244.23254,488.19179 240.1827,407.94979 243.43164,328.57227 c 15.42922,-76.49232 46.63018,-96.42675 87.96209,-100.35234 35.60091,-3.18985 65.03205,54.79799 74.35041,83.78202 l 55.66992,2 c 11.594,-31.24023 43.36185,-89.96317 76.3711,-89.75586 z"
       id="path4140"
       inkscape:connector-curvature="0"
       sodipodi:nodetypes="ccccccccccccccccccccccc" />
  </g>
</svg>
