<?xml version="1.0" standalone="no"?>
<!DOCTYPE svg PUBLIC "-//W3C//DTD SVG 1.1//EN" "http://www.w3.org/Graphics/SVG/1.1/DTD/svg11.dtd" >
<svg viewBox="0 -410 2048 2048">
  <g transform="matrix(1 0 0 -1 0 1638)">
   <path fill="currentColor"
d="M487.049 221.271q-80.7012 57.5391 -126.167 3.17871q-20.7402 -27.7822 16.0781 -59.0859q36.8184 -31.3037 85.5381 -21.3633q53.0254 23.3008 130.781 66.4453q14.4912 6.33789 13.4473 -6.1084l-4.33594 -78.6768q-0.291016 -10.2275 -9.24316 -15.6885
q-100.602 -50.9043 -316.948 -178.755q-9.73926 -6.11133 -10.5908 1.9043q-5.34082 85.8955 59.6045 130.562q-74.915 52.5605 -55.957 123.252q116.823 262.927 247.295 131.777q13.4307 -11.0469 14.3848 -23.9795q-5.60059 -36.7412 -17.7363 -58.5801
q-12.1357 -21.8379 -26.1504 -14.8818z" />
  </g>

</svg>
