<?xml version="1.0" encoding="UTF-8" standalone="no"?>
<svg
   xmlns:dc="http://purl.org/dc/elements/1.1/"
   xmlns:cc="http://creativecommons.org/ns#"
   xmlns:rdf="http://www.w3.org/1999/02/22-rdf-syntax-ns#"
   xmlns:svg="http://www.w3.org/2000/svg"
   xmlns="http://www.w3.org/2000/svg"
   xmlns:sodipodi="http://sodipodi.sourceforge.net/DTD/sodipodi-0.dtd"
   xmlns:inkscape="http://www.inkscape.org/namespaces/inkscape"
   viewBox="0 -410 2048 2048"
   id="svg2"
   version="1.1"
   inkscape:version="0.91 r13725"
   sodipodi:docname="uni0669.svg">
  <metadata
     id="metadata12">
    <rdf:RDF>
      <cc:Work
         rdf:about="">
        <dc:format>image/svg+xml</dc:format>
        <dc:type
           rdf:resource="http://purl.org/dc/dcmitype/StillImage" />
      </cc:Work>
    </rdf:RDF>
  </metadata>
  <defs
     id="defs10" />
  <sodipodi:namedview
     pagecolor="#ffffff"
     bordercolor="#666666"
     borderopacity="1"
     objecttolerance="10"
     gridtolerance="10"
     guidetolerance="10"
     inkscape:pageopacity="0"
     inkscape:pageshadow="2"
     inkscape:window-width="1366"
     inkscape:window-height="704"
     id="namedview8"
     showgrid="false"
     inkscape:zoom="0.37256881"
     inkscape:cx="414.46781"
     inkscape:cy="453.60152"
     inkscape:window-x="0"
     inkscape:window-y="27"
     inkscape:window-maximized="1"
     inkscape:current-layer="svg2" />
  <g
     id="g4140"
     transform="matrix(1 0 0 -1 0 1638)"
     style="fill:#ff0000;fill-opacity:1">
    <path
       style="fill:#ff0000;fill-opacity:1"
       d="M 569.94727,-16.792969 C 464.68986,171.70767 466.21453,359.23687 468.58287,560.36738 421.18036,470.71561 331.45013,475.08155 280.12939,496.10643 c -47.27259,17.69821 -82.76234,55.12246 -98.17041,104.05373 -16.86026,48.67681 -15.9196,101.10409 -12.76367,152.17382 8.86853,92.79285 46.34195,179.21099 112.9375,243.33008 22.20835,21.21694 49.66828,37.78514 80.24219,43.05474 57.17892,11.1317 120.74579,-9.2115 157.44974,-55.26504 46.24715,-53.09009 65.6602,-125.30436 63.57663,-194.74672 -0.44526,-76.59244 -5.37112,-153.34354 0.70801,-229.78516 7.43564,-124.71397 30.07075,-250.53313 85.19335,-363.69727 11.77536,-24.07749 20.08488,-39.29965 30.94221,-61.50929 7.88341,-16.22361 6.28638,-22.23112 0.189,-36.487187 -12.95939,-30.299885 -39.36242,-78.340587 -70.43589,-137.771102 -17.38894,-26.799344 -32.64905,-20.351582 -60.05078,23.75 z M 480.76756,717.09585 C 482.21033,888.28624 280.12614,896.17233 252.10964,753.92057 259.5562,627.53304 473.9195,658.9302 480.76756,717.09585 Z"
       id="path4142"
       inkscape:connector-curvature="0"
       sodipodi:nodetypes="ccccccccccccsccccc" />
  </g>
</svg>
