<?xml version="1.0" encoding="UTF-8" standalone="no"?>
<svg
   xmlns:dc="http://purl.org/dc/elements/1.1/"
   xmlns:cc="http://creativecommons.org/ns#"
   xmlns:rdf="http://www.w3.org/1999/02/22-rdf-syntax-ns#"
   xmlns:svg="http://www.w3.org/2000/svg"
   xmlns="http://www.w3.org/2000/svg"
   xmlns:sodipodi="http://sodipodi.sourceforge.net/DTD/sodipodi-0.dtd"
   xmlns:inkscape="http://www.inkscape.org/namespaces/inkscape"
   viewBox="0 -410 2048 2048"
   id="svg2"
   version="1.1"
   inkscape:version="0.91 r13725"
   sodipodi:docname="uni06F4.svg">
  <metadata
     id="metadata12">
    <rdf:RDF>
      <cc:Work
         rdf:about="">
        <dc:format>image/svg+xml</dc:format>
        <dc:type
           rdf:resource="http://purl.org/dc/dcmitype/StillImage" />
      </cc:Work>
    </rdf:RDF>
  </metadata>
  <defs
     id="defs10" />
  <sodipodi:namedview
     pagecolor="#ffffff"
     bordercolor="#666666"
     borderopacity="1"
     objecttolerance="10"
     gridtolerance="10"
     guidetolerance="10"
     inkscape:pageopacity="0"
     inkscape:pageshadow="2"
     inkscape:window-width="1366"
     inkscape:window-height="704"
     id="namedview8"
     showgrid="false"
     inkscape:zoom="0.36018968"
     inkscape:cx="499.87462"
     inkscape:cy="563.27082"
     inkscape:window-x="0"
     inkscape:window-y="27"
     inkscape:window-maximized="1"
     inkscape:current-layer="svg2" />
  <g
     id="g4140"
     transform="matrix(1 0 0 -1 0 1638)"
     style="fill:#ff0000;fill-opacity:1">
    <path
       style="fill:#ff0000;fill-opacity:1"
       d="M 391.92657,-13.747006 C 378.06354,37.97477 372.60858,91.582795 358.02326,143.03804 302.49289,372.07947 212.45247,580.50014 88.554688,780.69727 78.218712,802.1735 81.650946,832.52493 85.65625,854.5332 c 8.107513,44.14815 12.786973,83.14275 24.66406,126.53711 4.12824,19.24779 11.42045,23.93639 25.72071,8.23828 61.49364,-59.09455 119.98801,-143.10705 158.49848,-218.88981 4.67062,-3.67436 33.06691,-21.55387 33.06691,-21.55387 4.48436,71.99607 20.70115,185.69631 55.85311,249.77229 21.77368,37.9033 59.24122,69.0865 103.56744,74.7803 55.83716,9.624 107.24282,-2.1162 152.36562,-38.0327 34.88588,-29.3998 70.15006,-111.75777 54.91797,-127.55472 -14.97002,-10.79528 -28.55931,-5.24767 -51.28318,0.50944 -103.71665,52.14882 -169.31792,32.06054 -206.50243,-69.10225 -8.99312,-30.00292 -24.91125,-81.44916 -29.35661,-112.45188 118.37618,-5.72583 216.82415,10.87306 263.52308,106.35328 11.38603,24.69222 34.64238,39.45252 50.42382,26.47461 14.53993,-12.06823 13.73236,-32.99636 11.30281,-50.39583 C 727.25459,734.65203 696.47785,660.37629 635.71853,615.28687 568.02445,572.16701 486.6621,545.80235 400.53413,541.8972 449.76383,387.62131 484.37088,225.02809 475.80915,62.383281 473.70028,29.052187 474.0194,-6.7605138 456.25801,-36.34902 c -20.7263,-37.593228 -57.08608,-7.178812 -64.33144,22.602014 z"
       id="path4142"
       inkscape:connector-curvature="0"
       sodipodi:nodetypes="ccccccccccccccccccccccc" />
  </g>
</svg>
